PathFileType  4	(X/Y/Z) C:\Users\antoi\Documents\MyRepositories\mobilecap\ResultsAnalysis
DataRate	CameraRate	NumFrames	NumMarkers	Units	OrigDataRate	OrigDataStartFrame	OrigNumFrames
100.0	100.0	4	51	mm	100.0	1	146
Frame#	Time	r_knee			r_shank_antsup			r_ankle			r_calc			r_5meta			r_toe			L_knee			L_shank_antsup			L_ankle			L_calc			L_5meta			L_toe			r_sh2			r_sh3			r_sh4			L_sh2			L_sh3			r_thigh1			r_thigh2			r_thigh3			r_thigh4			r_thigh5			L_thigh1			L_thigh2			L_thigh3			L_thigh4			r.ASIS			r.PSIS			L.ASIS			L.PSIS			C7			R_Shoulder			L_Shoulder			R_Sternum			L_Sternum			R_humerus			R_elbow_med			R_elbow_lat			R_forearm			R_wrist_radius			R_wrist_ulna			L_humerus			L_elbow_med			L_elbow_lat			L_forearm			L_wrist_radius			L_wrist_ulna			R_HJC			L_HJC			R_HJC_reg			L_HJC_reg			
		X1	Y1	Z1	X2	Y2	Z2	X3	Y3	Z3	X4	Y4	Z4	X5	Y5	Z5	X6	Y6	Z6	X7	Y7	Z7	X8	Y8	Z8	X9	Y9	Z9	X10	Y10	Z10	X11	Y11	Z11	X12	Y12	Z12	X13	Y13	Z13	X14	Y14	Z14	X15	Y15	Z15	X16	Y16	Z16	X17	Y17	Z17	X18	Y18	Z18	X19	Y19	Z19	X20	Y20	Z20	X21	Y21	Z21	X22	Y22	Z22	X23	Y23	Z23	X24	Y24	Z24	X25	Y25	Z25	X26	Y26	Z26	X27	Y27	Z27	X28	Y28	Z28	X29	Y29	Z29	X30	Y30	Z30	X31	Y31	Z31	X32	Y32	Z32	X33	Y33	Z33	X34	Y34	Z34	X35	Y35	Z35	X36	Y36	Z36	X37	Y37	Z37	X38	Y38	Z38	X39	Y39	Z39	X40	Y40	Z40	X41	Y41	Z41	X42	Y42	Z42	X43	Y43	Z43	X44	Y44	Z44	X45	Y45	Z45	X46	Y46	Z46	X47	Y47	Z47	X48	Y48	Z48	X49	Y49	Z49	X50	Y50	Z50	X51	Y51	Z51	

1	0.00000000	-22.00790	527.57966	-37.64661	24.94940	462.35807	-28.58571	94.07302	104.58372	-50.43432	57.05613	40.64200	-97.81246	257.83134	84.46409	-20.42358	276.79570	126.64259	-75.05736	-277.72323	514.48290	-325.83228	-295.54024	390.49579	-329.85995	-491.14509	120.77664	-309.05058	-574.59424	88.31910	-277.34526	-352.77901	29.98954	-337.47174	-338.21027	51.83392	-269.81484	60.41161	354.73253	-21.06108	-44.77175	440.58839	-6.02823	-19.99659	329.51499	-8.74373	-373.46411	435.42227	-353.45973	-424.78546	327.02976	-353.23918	-54.49279	846.83173	-9.46659	-11.45239	747.86080	-23.96535	-49.81499	699.88066	9.28076	-155.69426	797.48101	1.44438	-104.70687	693.68297	-2.66774	-144.69392	823.98703	-354.80248	-157.69658	688.05492	-343.12629	-261.75177	833.51665	-359.26304	-268.43519	693.47856	-351.60003	-78.74984	1022.81692	-60.93753	-279.52829	1066.55290	-121.82149	-98.16081	1012.88503	-320.17631	-287.27472	1068.33428	-224.45535	-247.67211	1577.61661	-203.07712	-204.28367	1540.39778	-30.09222	-184.56051	1555.43010	-343.99111	-96.40225	1500.38949	-160.55141	-92.07411	1499.19464	-215.69536	-272.41519	1276.79121	52.81618	-295.31758	1185.64209	-28.30724	-306.86184	1193.32370	54.05709	-247.33160	1045.93929	90.90308	-200.53906	938.05929	94.46921	-246.84671	937.32595	96.84942	-97.47776	1344.29699	-474.64622	-98.52240	1223.90520	-445.53215	-73.97545	1260.80497	-503.77285	96.53422	1207.56951	-495.18290	180.75308	1180.55921	-470.90768	179.99623	1154.69761	-492.70573	-167.69662	947.04699	-57.67119	-185.06333	940.93262	-287.30175	-157.20840	941.69016	-93.26020	-170.12915	944.66178	-264.44894	
2	0.01000000	-9.81153	527.36775	-37.67576	35.64928	461.12042	-28.44358	99.51272	102.91137	-51.22664	59.32017	42.12602	-98.13157	261.08538	78.41400	-21.37420	282.08482	120.32503	-75.47348	-264.15173	513.47353	-325.32979	-284.36492	390.37006	-329.52032	-487.73815	125.39064	-308.65977	-571.99179	95.62845	-276.60450	-352.70132	29.78310	-337.53142	-337.82447	51.62110	-269.91019	69.34098	353.09407	-21.46634	-34.65565	440.31007	-6.91505	-11.60333	329.03687	-10.01751	-361.45764	436.91501	-353.31719	-416.45901	330.12423	-352.33708	-41.54043	847.26352	-8.32391	1.40921	748.24096	-23.52803	-37.37356	699.99623	8.81073	-143.13385	797.89893	1.95954	-92.16153	694.10110	-2.87050	-131.59639	823.06996	-353.08808	-144.40746	687.15478	-342.01272	-248.63247	832.21745	-357.41886	-254.93731	692.24665	-349.85882	-65.45276	1022.82270	-59.79592	-266.52264	1066.35979	-120.37003	-85.13666	1011.80448	-319.02001	-274.32945	1067.64997	-222.97979	-235.58296	1577.27775	-199.86191	-191.98727	1539.16914	-27.13468	-172.89066	1555.87728	-340.86791	-84.17886	1500.04930	-157.91139	-79.76141	1498.97806	-213.03563	-259.52118	1274.97424	54.54080	-282.05022	1184.21891	-27.03862	-293.80016	1191.52332	55.30573	-235.60852	1043.60578	91.69290	-189.94354	935.28751	95.02232	-236.13005	934.85625	97.20382	-86.83237	1344.73194	-472.21475	-88.22180	1224.11260	-443.54863	-63.75125	1261.23728	-501.78385	106.75613	1208.32319	-492.77630	190.84906	1181.46265	-468.44301	190.33853	1155.64415	-490.06335	-154.39084	947.06738	-56.01141	-172.15890	940.01850	-285.58306	-144.05385	941.62853	-91.68586	-157.08086	943.78058	-262.91087	
3	0.02000000	2.41479	527.39561	-37.61568	46.43458	460.12224	-28.24963	104.68108	101.34188	-51.83779	61.48439	43.61345	-98.35920	264.23165	72.49067	-22.34483	287.14638	114.12196	-75.94815	-250.14017	512.54548	-324.85873	-273.23943	390.19937	-329.22188	-483.98209	130.32165	-308.15888	-568.97325	103.41195	-275.68907	-352.60536	29.68315	-337.56598	-337.35726	51.35146	-270.01499	78.32569	351.68987	-21.74178	-24.40199	440.32253	-7.57649	-3.11398	328.80998	-11.00923	-349.11556	438.58637	-353.01738	-407.70838	333.41687	-351.35689	-28.70095	847.79304	-7.07830	14.13814	748.71964	-22.93979	-24.98103	700.30231	8.44915	-130.72005	798.44775	2.48920	-79.74412	694.60878	-2.96524	-118.36266	822.28260	-351.36223	-130.81609	686.37061	-340.92047	-235.37541	830.94805	-355.51993	-241.16214	691.02388	-348.12995	-52.25116	1022.99165	-58.63601	-253.55861	1066.33461	-119.00455	-72.11025	1010.86954	-317.80704	-261.40263	1067.08835	-221.60364	-223.45238	1577.07401	-196.65452	-179.66123	1538.08075	-24.17393	-161.19554	1556.43430	-337.76875	-71.94290	1499.84252	-155.27213	-67.43954	1498.90519	-210.36998	-246.57951	1273.31087	56.30203	-268.73449	1182.93802	-25.71966	-280.68635	1189.87721	56.59644	-223.83090	1041.43077	92.53137	-179.25953	932.66348	95.60645	-225.35453	932.55686	97.60466	-76.28282	1345.18640	-469.77723	-78.08580	1224.33955	-441.50823	-53.64496	1261.65771	-499.74842	116.81335	1208.91661	-490.34381	200.79752	1182.15527	-465.94646	200.49170	1156.36045	-487.39460	-141.18187	947.25847	-54.35679	-159.24158	939.23877	-283.87439	-130.97556	941.79169	-90.07291	-144.06630	943.04905	-261.30674	
4	0.03000000	14.67046	527.82959	-37.39157	57.34304	459.52562	-27.95025	109.34736	99.96036	-52.12767	63.47061	45.08763	-98.43689	267.15707	66.84125	-23.31998	291.77781	108.17847	-76.49162	-235.31529	511.75149	-324.44292	-262.04425	389.99910	-329.00225	-479.55622	135.83955	-307.44481	-565.16136	112.07887	-274.43920	-352.47344	29.80021	-337.54567	-336.71789	51.01059	-270.12442	87.37328	350.67656	-21.78534	-13.92907	440.83049	-7.80814	5.50995	329.01137	-11.47271	-336.12095	440.57747	-352.44919	-398.15106	337.06770	-350.22901	-16.04734	848.50644	-5.66505	26.65889	749.38542	-22.09321	-12.66642	700.93833	8.30600	-118.53893	799.23133	3.06879	-67.51997	695.28053	-2.85174	-104.87832	821.73323	-349.62151	-116.65710	685.79573	-339.86689	-221.86411	829.72234	-353.53264	-226.86425	689.80954	-346.43549	-39.22188	1023.45889	-57.43025	-240.67522	1066.60497	-117.79551	-59.08966	1010.20118	-316.48582	-248.51254	1066.75169	-220.40781	-211.25537	1577.11358	-193.46589	-167.28475	1537.25240	-21.21293	-149.45110	1557.19291	-334.71506	-59.68840	1499.88183	-152.63381	-55.10545	1499.09404	-207.69533	-233.54971	1271.93450	58.12727	-255.33519	1181.92162	-24.31052	-267.47866	1188.51916	57.96619	-211.95001	1039.55640	93.45998	-168.41618	930.32362	96.25249	-214.46913	930.57751	98.09696	-65.90574	1345.67714	-467.32579	-68.25325	1224.60914	-439.36221	-43.76022	1262.06068	-497.62795	126.56777	1209.22153	-487.86281	210.49026	1182.47053	-463.38628	210.28413	1156.65988	-484.68146	-128.15203	947.75819	-52.70791	-146.30237	938.70332	-282.18014	-118.03493	942.34427	-88.38826	-131.10974	942.59000	-259.58656	
